name Walk7_EMG.mot
datacolumns 17
datarows 25
range 2.43800000 2.46200000
endheader
                time	            vasmed_r	            vaslat_r	            recfem_r	               gra_r	               sar_r	            tibant_r	           perlong_r	            addmag_r	           semimem_r	          bicfemlh_r	            gasmed_r	            gaslat_r	               sol_r	               tfl_r	              gmed_r	              gmax_r	
          2.43800000	          0.55265121	          0.88879556	          0.84871317	          0.20399724	          0.76966877	          0.10651589	          0.61472294	          0.55822663	          0.09476930	          0.29364895	          0.23893287	          0.27416930	          0.25906768	          0.49411110	          0.40104846	          0.35005730	
          2.43900000	          0.55138838	          0.89815813	          0.83587566	          0.20551849	          0.77915690	          0.10412513	          0.62499383	          0.55944036	          0.09454021	          0.29224412	          0.24149405	          0.27347131	          0.26231904	          0.48818087	          0.39785513	          0.35182426	
          2.44000000	          0.54960290	          0.90741100	          0.82250702	          0.20689837	          0.78819886	          0.10193064	          0.63479934	          0.56041620	          0.09434998	          0.29086407	          0.24402367	          0.27274951	          0.26560041	          0.48240879	          0.39515355	          0.35353002	
          2.44100000	          0.54731481	          0.91648555	          0.80864904	          0.20813936	          0.79680181	          0.09991821	          0.64415268	          0.56113770	          0.09419926	          0.28950503	          0.24650807	          0.27202040	          0.26889171	          0.47682994	          0.39294689	          0.35516052	
          2.44200000	          0.54454788	          0.92531409	          0.79434153	          0.20924350	          0.80497593	          0.09807395	          0.65306829	          0.56159127	          0.09408841	          0.28816282	          0.24893488	          0.27130424	          0.27217434	          0.47148121	          0.39123497	          0.35670187	
          2.44300000	          0.54133017	          0.93382834	          0.77962197	          0.21021234	          0.81273400	          0.09638432	          0.66155904	          0.56176750	          0.09401772	          0.28683224	          0.25129222	          0.27062337	          0.27543189	          0.46639730	          0.39001442	          0.35813992	
          2.44400000	          0.53769731	          0.94195904	          0.76452576	          0.21104696	          0.82008786	          0.09483610	          0.66963439	          0.56166178	          0.09398771	          0.28550668	          0.25356863	          0.26999936	          0.27865145	          0.46160572	          0.38927601	          0.35946012	
          2.44500000	          0.53369194	          0.94963647	          0.74908661	          0.21174776	          0.82704512	          0.09341655	          0.67730080	          0.56127554	          0.09399926	          0.28417813	          0.25575373	          0.26945052	          0.28182601	          0.45712608	          0.38900280	          0.36064800	
          2.44600000	          0.52935841	          0.95679090	          0.73333684	          0.21231480	          0.83360699	          0.09211356	          0.68456505	          0.56062054	          0.09405310	          0.28283729	          0.25783824	          0.26899059	          0.28495357	          0.45297189	          0.38917091	          0.36168965	
          2.44700000	          0.52473849	          0.96335302	          0.71730769	          0.21274811	          0.83976726	          0.09091573	          0.69143774	          0.55972604	          0.09414904	          0.28147402	          0.25981302	          0.26862850	          0.28803232	          0.44915140	          0.38975227	          0.36257272	
          2.44800000	          0.51986977	          0.96925441	          0.70102917	          0.21304744	          0.84551203	          0.08981250	          0.69793372	          0.55864221	          0.09428562	          0.28007782	          0.26166858	          0.26836932	          0.29105737	          0.44566783	          0.39071800	          0.36328809	
          2.44900000	          0.51478518	          0.97442808	          0.68452978	          0.21321183	          0.85082051	          0.08879421	          0.70407049	          0.55743635	          0.09446026	          0.27863828	          0.26339547	          0.26821643	          0.29402149	          0.44252013	          0.39203965	          0.36383080	
          2.45000000	          0.50951270	          0.97880939	          0.66783682	          0.21323954	          0.85566758	          0.08785204	          0.70986741	          0.55618568	          0.09466941	          0.27714541	          0.26498500	          0.26817394	          0.29691840	          0.43970271	          0.39368768	          0.36419893	
          2.45100000	          0.50407534	          0.98233707	          0.65097759	          0.21312818	          0.86002847	          0.08697791	          0.71534515	          0.55496844	          0.09490866	          0.27558984	          0.26642955	          0.26824634	          0.29974665	          0.43720415	          0.39562953	          0.36439223	
          2.45200000	          0.49849199	          0.98495459	          0.63398226	          0.21287527	          0.86388633	          0.08616447	          0.72052270	          0.55385438	          0.09517309	          0.27396316	          0.26772301	          0.26843597	          0.30251103	          0.43500785	          0.39782976	          0.36441207	
          2.45300000	          0.49277889	          0.98661169	          0.61688782	          0.21247916	          0.86723877	          0.08540499	          0.72541326	          0.55289857	          0.09545809	          0.27225790	          0.26886186	          0.26874134	          0.30522002	          0.43309568	          0.40025192	          0.36426104	
          2.45400000	          0.48695050	          0.98726568	          0.59973980	          0.21193938	          0.87009502	          0.08469341	          0.73002413	          0.55214044	          0.09575994	          0.27046757	          0.26984606	          0.26915705	          0.30788491	          0.43145177	          0.40286023	          0.36394146	
          2.45500000	          0.48101943	          0.98688156	          0.58258996	          0.21125594	          0.87246663	          0.08402452	          0.73436246	          0.55160531	          0.09607583	          0.26858674	          0.27067780	          0.26967555	          0.31052227	          0.43006235	          0.40561948	          0.36345399	
          2.45600000	          0.47499651	          0.98543121	          0.56549178	          0.21042896	          0.87436303	          0.08339424	          0.73844171	          0.55130625	          0.09640367	          0.26661127	          0.27135981	          0.27029061	          0.31315356	          0.42891326	          0.40849387	          0.36279769	
          2.45700000	          0.46889126	          0.98289346	          0.54849819	          0.20945906	          0.87579311	          0.08279988	          0.74228347	          0.55124682	          0.09674149	          0.26453835	          0.27189421	          0.27100012	          0.31580011	          0.42798991	          0.41144676	          0.36197075	
          2.45800000	          0.46271220	          0.97925451	          0.53166201	          0.20834793	          0.87676487	          0.08224011	          0.74591481	          0.55142430	          0.09708683	          0.26236610	          0.27228176	          0.27180703	          0.31847925	          0.42728005	          0.41444153	          0.36097112	
          2.45900000	          0.45646690	          0.97450691	          0.51503561	          0.20709824	          0.87728196	          0.08171457	          0.74936482	          0.55183080	          0.09743663	          0.26009318	          0.27252134	          0.27271864	          0.32120312	          0.42677527	          0.41744281	          0.35979690	
          2.46000000	          0.45016172	          0.96864786	          0.49866859	          0.20571305	          0.87734165	          0.08122310	          0.75266199	          0.55245207	          0.09778764	          0.25771854	          0.27261033	          0.27374371	          0.32397901	          0.42646968	          0.42041701	          0.35844709	
          2.46100000	          0.44380180	          0.96167863	          0.48260570	          0.20419547	          0.87693518	          0.08076531	          0.75583022	          0.55326709	          0.09813664	          0.25524136	          0.27254576	          0.27488957	          0.32681276	          0.42635687	          0.42333276	          0.35692363	
          2.46200000	          0.43739139	          0.95360538	          0.46688591	          0.20254873	          0.87604919	          0.08034060	          0.75888459	          0.55424897	          0.09848034	          0.25266098	          0.27232531	          0.27616191	          0.32971268	          0.42642695	          0.42616248	          0.35523353	
